<svg width="33" height="33" viewBox="0 0 33 33" fill="none" xmlns="http://www.w3.org/2000/svg">
<circle cx="16.9159" cy="16.1174" r="16" fill="#EDEFF6"/>
<g clip-path="url(#clip0)">
<path opacity="0.15" d="M13.2486 18.8571C13.2486 18.5417 13.1429 18.2723 12.9314 18.0491C12.7199 17.8259 12.4647 17.7143 12.1658 17.7143C11.8668 17.7143 11.6116 17.8259 11.4001 18.0491C11.1886 18.2723 11.0829 18.5417 11.0829 18.8571C11.0829 19.1726 11.1886 19.442 11.4001 19.6652C11.6116 19.8884 11.8668 20 12.1658 20C12.4647 20 12.7199 19.8884 12.9314 19.6652C13.1429 19.442 13.2486 19.1726 13.2486 18.8571ZM21.9117 18.8571C21.9117 18.5417 21.806 18.2723 21.5945 18.0491C21.383 17.8259 21.1277 17.7143 20.8288 17.7143C20.5299 17.7143 20.2747 17.8259 20.0632 18.0491C19.8517 18.2723 19.7459 18.5417 19.7459 18.8571C19.7459 19.1726 19.8517 19.442 20.0632 19.6652C20.2747 19.8884 20.5299 20 20.8288 20C21.1277 20 21.383 19.8884 21.5945 19.6652C21.806 19.442 21.9117 19.1726 21.9117 18.8571ZM21.5225 15.3214L20.9134 11.8929C20.8852 11.756 20.8218 11.6443 20.7231 11.558C20.6244 11.4717 20.5102 11.4286 20.3804 11.4286H12.6141C12.4844 11.4286 12.3702 11.4717 12.2715 11.558C12.1728 11.6443 12.1094 11.756 12.0812 11.8929L11.472 15.3214C11.4438 15.5 11.4833 15.6577 11.5905 15.7946C11.6976 15.9315 11.8358 16 12.005 16H20.9896C21.1588 16 21.2969 15.9315 21.4041 15.7946C21.5113 15.6577 21.5507 15.5 21.5225 15.3214ZM19.6106 9.85714C19.6106 9.7381 19.5711 9.6369 19.4921 9.55357C19.4132 9.47024 19.3173 9.42857 19.2045 9.42857H13.7901C13.6773 9.42857 13.5814 9.47024 13.5024 9.55357C13.4235 9.6369 13.384 9.7381 13.384 9.85714C13.384 9.97619 13.4235 10.0774 13.5024 10.1607C13.5814 10.244 13.6773 10.2857 13.7901 10.2857H19.2045C19.3173 10.2857 19.4132 10.244 19.4921 10.1607C19.5711 10.0774 19.6106 9.97619 19.6106 9.85714ZM22.9946 16.3304V21.7143H21.9117V22.8571C21.9117 23.1726 21.806 23.442 21.5945 23.6652C21.383 23.8884 21.1277 24 20.8288 24C20.5299 24 20.2747 23.8884 20.0632 23.6652C19.8517 23.442 19.7459 23.1726 19.7459 22.8571V21.7143H13.2486V22.8571C13.2486 23.1726 13.1429 23.442 12.9314 23.6652C12.7199 23.8884 12.4647 24 12.1658 24C11.8668 24 11.6116 23.8884 11.4001 23.6652C11.1886 23.442 11.0829 23.1726 11.0829 22.8571V21.7143H10V16.3304C10 15.6637 10.0705 15 10.2115 14.3393L11.0829 10.2857C11.1336 9.82143 11.4086 9.41369 11.9077 9.0625C12.4069 8.71131 13.0555 8.44643 13.8535 8.26786C14.6516 8.08929 15.5329 8 16.4973 8C17.4617 8 18.343 8.08929 19.1411 8.26786C19.9391 8.44643 20.5877 8.71131 21.0869 9.0625C21.586 9.41369 21.8609 9.82143 21.9117 10.2857L22.8 14.3393C22.9297 14.9464 22.9946 15.6101 22.9946 16.3304Z" fill="#1D2E5B"/>
</g>
<defs>
<clipPath id="clip0">
<rect width="13" height="16" fill="white" transform="translate(9.66223 8.35229)"/>
</clipPath>
</defs>
</svg>
